<?xml version="1.0" encoding="UTF-8"?>
<!-- Generated by Pixelmator Pro 3.6.14 -->
<svg width="720" height="720" viewBox="0 0 720 720" xmlns="http://www.w3.org/2000/svg">
    <clipPath id="clipPath1">
        <path d="M 0 0 L 960 0 L 960 720 L 0 720 L 0 0 Z"/>
    </clipPath>
    <g id="Group" clip-path="url(#clipPath1)">
        <path id="Path" fill="none" stroke="none" d="M 0 0 L 960 0 L 960 720 L 0 720 Z"/>
        <path id="path1" fill="#eab308" fill-rule="evenodd" stroke="none" d="M 0 119.687439 L 0 119.687439 C 0 53.585876 53.585888 0 119.687431 0 L 598.422791 0 L 598.422791 0 C 630.165894 0 660.608826 12.609863 683.054626 35.055664 C 705.500366 57.501404 718.110229 87.944336 718.110229 119.687439 L 718.110229 600.312561 C 718.110229 666.414124 664.524353 720 598.422791 720 L 119.687431 720 C 53.58588 720 -1e-06 666.414124 -1e-06 600.312561 Z"/>
    </g>
</svg>
